<?xml version="1.0" standalone="no"?>
<!DOCTYPE svg PUBLIC "-//W3C//DTD SVG 20010904//EN"
 "http://www.w3.org/TR/2001/REC-SVG-20010904/DTD/svg10.dtd">
<svg version="1.0"
  xmlns="http://www.w3.org/2000/svg" width="1280.000000pt" height="978.000000pt" viewBox="0 0 1280.000000 978.000000" preserveAspectRatio="xMidYMid meet">
  <defs>
    <linearGradient id="santaRed" x1="0" y1="0" x2="0.2" y2="1">
      <stop offset="0%" stop-color="#fca5a5" />
      <stop offset="15%" stop-color="#f87171" />
      <stop offset="45%" stop-color="#ef4444" />
      <stop offset="75%" stop-color="#dc2626" />
      <stop offset="100%" stop-color="#7f1d1d" />
    </linearGradient>
  </defs>
  <metadata>
Created by potrace 1.15, written by Peter Selinger 2001-2017
  </metadata>
  <g transform="translate(0.000000,978.000000) scale(0.100000,-0.100000)" fill="url(#santaRed)" stroke="none">
    <path d="M7775 9755 c-77 -13 -178 -26 -225 -30 -110 -8 -266 -46 -410 -100
-63 -23 -176 -63 -250 -88 -188 -63 -318 -121 -536 -243 -104 -58 -218 -121
-254 -139 -191 -97 -327 -212 -535 -450 -253 -291 -409 -521 -557 -825 -119
-244 -122 -252 -192 -496 -30 -105 -75 -240 -99 -300 -25 -60 -49 -140 -55
-177 -6 -38 -19 -78 -30 -92 -19 -24 -26 -47 -72 -233 -11 -46 -40 -129 -64
-185 -73 -172 -179 -508 -215 -687 -34 -166 -128 -435 -232 -662 -53 -116 -75
-188 -114 -376 -34 -163 -86 -309 -205 -577 -54 -121 -105 -245 -114 -276 -9
-31 -31 -78 -48 -105 -17 -27 -57 -103 -89 -170 -32 -66 -83 -154 -114 -197
-31 -42 -67 -102 -81 -134 -14 -32 -50 -89 -79 -128 -30 -38 -64 -92 -76 -120
-27 -62 -63 -108 -207 -258 -62 -66 -136 -151 -163 -191 -28 -39 -69 -84 -92
-99 -55 -37 -169 -72 -237 -72 -50 0 -62 5 -130 51 -41 29 -92 57 -113 64 -47
15 -57 35 -97 195 -16 66 -45 152 -64 190 -53 108 -232 306 -288 320 -42 11
-138 -32 -189 -84 -35 -37 -58 -76 -104 -184 -33 -77 -64 -137 -71 -137 -8 0
-60 19 -116 42 -168 68 -226 63 -324 -26 -65 -58 -111 -128 -135 -207 -34
-110 -50 -127 -194 -204 -94 -50 -148 -95 -195 -165 -46 -67 -91 -105 -176
-148 -34 -17 -75 -43 -93 -58 -78 -65 -125 -174 -136 -314 -9 -103 3 -151 50
-213 19 -25 35 -55 35 -67 0 -11 -16 -51 -36 -88 -61 -117 -70 -251 -21 -324
29 -42 111 -91 257 -153 134 -57 183 -85 206 -120 12 -18 21 -69 29 -168 17
-201 69 -335 157 -406 45 -37 94 -42 347 -39 l236 3 97 -42 c152 -67 227 -77
329 -47 71 21 135 83 144 139 18 121 61 130 320 75 194 -42 220 -22 277 219
17 73 40 88 153 101 141 17 165 37 191 160 21 97 14 175 -19 226 -14 22 -28
62 -32 92 -9 66 -37 101 -146 178 -88 62 -109 86 -109 126 0 32 65 110 112
134 63 33 191 50 708 94 149 13 337 46 469 84 47 13 124 27 170 30 130 10 266
40 506 110 121 36 260 74 309 85 149 35 284 115 349 207 20 29 44 48 75 60 30
11 78 48 141 108 112 107 153 139 200 155 86 29 285 233 305 314 3 15 29 53
57 83 28 31 58 73 66 93 8 20 28 50 43 66 42 44 65 104 94 246 28 136 48 198
94 299 17 36 33 82 37 103 14 73 53 73 174 3 122 -71 248 -116 328 -116 54 0
78 29 88 107 8 70 28 120 60 153 43 45 65 113 80 248 16 146 19 151 109 171
99 22 158 82 186 190 8 30 30 62 70 106 32 35 71 87 86 117 14 29 32 56 38 60
6 5 61 5 122 2 100 -6 115 -5 160 15 64 29 99 63 135 133 17 34 37 59 50 63
12 4 65 8 118 9 77 1 103 5 131 22 38 22 66 69 75 125 3 19 28 71 55 115 28
43 58 104 66 134 20 68 53 105 113 125 58 19 175 34 266 35 92 0 140 14 194
56 59 46 91 44 194 -8 74 -38 89 -42 157 -42 64 -1 82 3 121 26 27 16 51 39
58 57 16 37 56 75 70 66 6 -3 11 -17 11 -30 0 -60 220 -270 306 -291 35 -9
107 -51 177 -103 86 -64 130 -81 242 -95 106 -13 131 -23 145 -62 14 -35 85
-86 235 -169 147 -81 222 -132 271 -184 60 -65 81 -72 191 -65 l100 7 29 -38
c71 -93 99 -117 183 -158 84 -41 88 -42 191 -42 l106 0 67 44 c37 24 102 54
146 67 91 28 136 56 168 103 45 67 53 145 28 266 -19 90 -19 135 1 163 19 27
41 27 124 2 36 -11 81 -20 100 -20 44 0 94 30 120 72 36 60 26 128 -44 293
-55 129 -33 153 124 136 123 -13 154 -5 213 58 60 64 66 90 37 150 -73 151
-223 311 -345 367 -81 37 -97 60 -71 99 20 31 51 46 146 74 97 29 118 43 126
85 15 81 -37 143 -141 171 -75 19 -233 19 -305 0 -96 -26 -103 -23 -167 57
-32 39 -84 100 -115 135 -31 35 -80 104 -108 153 -58 101 -84 121 -177 139
-127 24 -144 38 -263 210 -68 100 -117 154 -319 352 -179 176 -250 253 -285
309 -55 86 -335 369 -664 669 -218 199 -320 278 -394 305 -35 13 -57 30 -80
62 -35 48 -93 96 -207 170 -41 26 -118 79 -170 117 -56 40 -157 98 -240 139
-78 38 -167 86 -195 108 -85 62 -215 130 -491 255 -305 139 -308 139 -540 100z
m1097 -2072 c54 -58 81 -142 92 -281 9 -111 34 -146 121 -166 16 -4 111 -11
210 -16 206 -10 237 -18 399 -104 191 -102 302 -136 377 -116 58 16 85 39 136
115 46 68 73 82 93 46 5 -11 10 -78 10 -150 0 -210 22 -266 109 -278 73 -10
124 13 214 94 113 102 134 96 136 -45 1 -75 24 -130 56 -138 32 -8 87 24 170
96 76 67 120 94 135 85 20 -12 40 -64 59 -154 11 -50 25 -99 31 -110 15 -29
47 -44 77 -36 13 3 82 62 153 130 71 68 140 127 153 130 34 9 61 -8 81 -49 25
-52 20 -100 -19 -186 -52 -115 -44 -150 33 -150 47 0 54 -17 40 -97 -6 -38 -9
-77 -5 -86 3 -8 26 -25 52 -36 27 -12 52 -32 63 -50 21 -37 90 -76 234 -130
195 -73 387 -180 452 -251 40 -45 39 -62 -7 -82 -57 -24 -162 -14 -283 27
-169 56 -224 57 -224 4 0 -32 53 -137 143 -282 121 -195 141 -257 84 -257 -13
0 -93 34 -177 75 -84 41 -166 75 -181 75 -20 0 -34 -8 -46 -26 -21 -33 -12
-79 52 -278 25 -76 51 -170 57 -207 11 -61 10 -71 -4 -86 -16 -15 -20 -14 -59
12 -24 15 -63 47 -88 70 -69 63 -106 85 -141 85 -45 0 -61 -44 -71 -205 -4
-71 -11 -140 -15 -152 -13 -46 -99 -20 -157 47 -65 76 -86 178 -68 324 13 109
7 126 -49 126 -48 0 -84 -34 -134 -125 -35 -64 -83 -105 -123 -105 -14 0 -37
13 -53 28 -39 39 -54 118 -42 220 13 107 7 139 -30 158 -49 25 -88 11 -147
-51 -67 -71 -89 -85 -129 -85 -60 0 -118 44 -146 111 -8 20 -19 70 -25 112
-10 87 -42 153 -84 177 l-27 15 -91 -92 c-97 -99 -124 -112 -153 -71 -22 30
-20 71 4 118 11 22 20 56 20 76 0 31 -8 45 -49 85 -47 48 -75 58 -115 43 -9
-3 -32 -33 -52 -65 -38 -63 -58 -79 -99 -79 -40 0 -78 24 -129 81 -81 90 -147
251 -177 434 -14 88 -30 115 -69 115 -58 0 -96 -73 -151 -286 -60 -235 -73
-258 -138 -227 -44 22 -88 79 -156 203 -66 120 -99 160 -132 160 -33 0 -52
-48 -68 -177 -13 -98 -27 -143 -43 -143 -13 0 -67 62 -111 128 -94 140 -148
120 -175 -62 -16 -112 -36 -149 -82 -154 -30 -3 -40 3 -135 76 -45 35 -79 41
-99 17 -7 -9 -15 -66 -20 -145 -5 -105 -10 -134 -25 -150 -10 -11 -24 -20 -30
-20 -7 0 -61 25 -120 55 -59 30 -113 55 -121 55 -22 0 -33 -33 -25 -71 14 -55
26 -81 81 -164 38 -59 50 -87 48 -110 -3 -28 -6 -30 -40 -29 -48 1 -166 58
-289 139 -128 84 -151 95 -192 95 -89 0 -73 -96 45 -278 22 -34 39 -64 37 -66
-2 -2 -53 0 -114 4 -271 21 -311 13 -322 -67 -5 -35 1 -56 31 -119 20 -42 36
-85 36 -95 0 -26 -39 -25 -92 2 -52 26 -103 29 -126 6 -26 -26 -22 -126 7
-204 29 -77 24 -93 -26 -93 -58 0 -100 -32 -131 -98 -26 -55 -27 -63 -27 -234
0 -201 -6 -220 -52 -170 -15 16 -48 53 -72 81 -39 47 -47 52 -79 49 -28 -2
-41 -11 -59 -37 -31 -46 -29 -80 12 -171 48 -106 47 -117 -10 -81 -53 34 -85
65 -123 121 -45 65 -74 82 -126 76 -50 -6 -57 -14 -63 -73 -7 -83 -11 -93 -37
-93 -23 0 -67 41 -127 119 l-27 34 -28 -49 c-56 -98 -87 -136 -120 -150 -42
-18 -67 -7 -90 38 -13 26 -16 56 -13 167 l4 136 -70 37 c-140 73 -139 114 5
263 99 103 115 127 100 154 -21 40 -64 53 -180 52 -94 -1 -111 2 -134 20 -45
35 -36 74 42 203 31 49 36 68 37 116 0 65 -17 91 -87 136 -41 26 -47 44 -23
64 23 19 28 71 11 117 -8 23 -41 82 -72 130 -57 87 -86 160 -76 196 15 59 112
60 311 3 186 -54 226 -47 250 41 30 108 15 138 -166 326 -62 65 -116 129 -119
143 -5 20 0 33 26 59 44 45 67 49 159 25 113 -29 134 -27 182 17 43 39 69 80
79 128 8 40 28 41 120 11 56 -18 80 -22 100 -14 14 5 79 64 145 131 123 126
222 200 312 236 133 52 259 66 342 37 24 -9 63 -16 86 -16 36 0 48 5 69 31 23
27 26 39 26 113 0 122 15 129 135 65 87 -46 143 -53 177 -23 23 21 22 46 -7
203 -16 88 -22 222 -10 240 24 41 181 -47 320 -179 116 -111 158 -122 210 -54
33 43 78 64 139 64 67 0 76 14 77 123 1 105 8 136 31 151 28 17 77 -14 185
-117 54 -51 112 -103 130 -115 37 -26 78 -29 87 -6 3 9 6 66 5 127 -1 163 41
318 105 382 32 32 46 31 78 -2z m-7133 -4778 c47 -24 127 -122 172 -210 37
-74 42 -92 46 -171 3 -60 -2 -143 -17 -254 -29 -222 -34 -274 -26 -303 8 -33
32 -57 57 -57 26 0 108 78 179 170 42 54 69 80 98 91 36 15 41 15 46 2 8 -21
-33 -106 -83 -172 -93 -123 -90 -186 9 -222 32 -11 74 -37 95 -57 43 -41 78
-112 69 -136 -7 -18 -77 -41 -157 -51 -30 -4 -69 -16 -86 -26 -65 -39 -30 -96
128 -209 195 -140 303 -270 341 -408 19 -73 -15 -132 -76 -132 -31 0 -96 43
-188 125 -108 95 -163 128 -209 123 -29 -3 -32 -7 -35 -39 -2 -26 8 -56 38
-113 53 -100 80 -206 80 -313 0 -101 -16 -145 -59 -162 -73 -31 -120 23 -202
232 -87 226 -111 259 -186 261 -34 1 -37 -1 -44 -34 -5 -19 -4 -132 2 -250 14
-279 10 -310 -44 -362 -70 -68 -127 -93 -199 -89 -44 3 -182 164 -193 225 -4
21 1 51 14 86 28 75 28 134 -1 154 -12 9 -40 16 -61 16 -72 0 -119 -77 -132
-212 -4 -45 -14 -78 -29 -100 -83 -124 -330 -96 -365 42 -5 19 -12 125 -16
235 -11 343 -14 348 -202 358 -127 6 -192 23 -255 64 -51 34 -78 80 -78 133 0
59 43 99 141 129 80 25 134 59 144 91 8 27 -11 50 -41 50 -71 0 -216 76 -236
124 -20 47 -14 161 12 230 29 76 87 136 133 136 17 0 61 -16 97 -35 131 -70
174 -88 218 -89 54 -1 76 22 68 73 -6 38 -27 71 -103 160 -63 74 -68 105 -24
149 37 36 77 42 221 31 152 -11 292 -11 328 2 63 22 52 60 -54 190 -102 125
-112 155 -74 229 38 74 122 92 201 41 63 -39 102 -90 159 -207 60 -123 97
-167 137 -162 50 6 62 50 78 287 11 162 19 222 36 265 30 81 68 102 128 71z" />
  </g>
</svg>
