<svg width="125" height="120" viewBox="0 0 125 120" fill="none" xmlns="http://www.w3.org/2000/svg">
<mask id="mask0_1802_37" style="mask-type:luminance" maskUnits="userSpaceOnUse" x="0" y="0" width="125" height="120">
<path fill-rule="evenodd" clip-rule="evenodd" d="M80.1327 73.5885L79.1505 61.5607H62.5728C59.9707 65.621 57.3449 69.6386 54.645 73.5885H80.1327ZM94.6878 120C94.6867 120 94.6867 120 94.6867 120C85.8748 119.999 85.1861 111.513 84.5175 103.305L78.7478 32.6757C74.5497 38.9557 70.56 45.2857 66.6792 51.4422C54.6441 70.5336 43.2393 88.6276 26.6463 104.437C34.7012 104.499 39.6112 104.691 49.5829 100.71C50.3135 100.417 51.1528 100.681 51.5861 101.341C52.0186 102.001 51.9287 102.874 51.37 103.431C37.0026 117.743 22.9478 117.846 5.55059 117.761C4.27311 117.754 2.97674 117.748 1.66207 117.748C0.962453 117.748 0.339869 117.311 0.100221 116.655C-0.138837 115.998 0.0590501 115.262 0.594865 114.815C23.1528 95.9046 47.3695 58.0834 66.8272 27.694C69.9922 22.7501 73.0117 18.0337 75.8375 13.6957C75.4842 13.6927 75.134 13.6903 74.7858 13.6867C73.5357 13.6765 72.3189 13.6658 71.1233 13.6658C64.7593 13.6658 58.3935 13.8986 50.5118 16.7125C49.7683 16.9786 48.9429 16.6846 48.5337 16.0099C48.1246 15.336 48.2447 14.4674 48.823 13.931C62.7482 1.00035 73.8024 0 87.899 0C89.3149 0 90.7684 0.0113626 92.2666 0.021102C93.8525 0.0332025 95.4876 0.04427 97.1815 0.04427C98.0485 0.04427 98.7689 0.710533 98.8372 1.57454L106.7 101.493C106.844 103.327 107.509 105.432 111.413 105.432C114.859 105.432 119.501 103.716 122.353 102.121C123.08 101.717 123.994 101.91 124.493 102.575C124.993 103.241 124.922 104.173 124.329 104.755C123.912 105.165 113.987 114.826 101.445 118.766C98.8115 119.597 96.6008 120 94.6878 120Z" fill="white"/>
<path d="M52.808 95H50.504L52.68 84.824L55.048 84.504L54.264 88.2H54.392C55 88.2 55.528 87.9067 55.976 87.32C56.4347 86.7333 56.664 86.0987 56.664 85.416C56.664 84.8933 56.5093 84.4827 56.2 84.184C55.8907 83.8853 55.4587 83.736 54.904 83.736C53.5813 83.736 52.5307 84.088 51.752 84.792C50.9733 85.4853 50.584 86.4293 50.584 87.624C50.584 87.8267 50.5947 88.0027 50.616 88.152C50.648 88.3013 50.696 88.4453 50.76 88.584C50.7813 88.6267 50.792 88.6587 50.792 88.68C50.8027 88.6907 50.808 88.7013 50.808 88.712C50.2107 88.712 49.7733 88.5893 49.496 88.344C49.2293 88.088 49.096 87.6933 49.096 87.16C49.096 86.6267 49.272 86.0933 49.624 85.56C49.9867 85.0267 50.488 84.5467 51.128 84.12C51.672 83.768 52.2533 83.496 52.872 83.304C53.5013 83.1013 54.1147 83 54.712 83C55.832 83 56.7173 83.2347 57.368 83.704C58.0187 84.1733 58.344 84.792 58.344 85.56C58.344 86.072 58.184 86.5787 57.864 87.08C57.5547 87.5813 57.1387 87.9867 56.616 88.296C56.9893 88.4027 57.2667 88.5893 57.448 88.856C57.6293 89.112 57.72 89.4587 57.72 89.896C57.72 90.1413 57.6933 90.424 57.64 90.744C57.5867 91.0533 57.4693 91.528 57.288 92.168C57.1387 92.712 57.0427 93.1013 57 93.336C56.9573 93.5707 56.936 93.7733 56.936 93.944C56.936 94.1893 56.9893 94.408 57.096 94.6C57.2133 94.792 57.368 94.9253 57.56 95C57.2507 95.0853 56.9573 95.1493 56.68 95.192C56.4133 95.2453 56.1787 95.272 55.976 95.272C55.56 95.272 55.2453 95.1813 55.032 95C54.8293 94.8293 54.728 94.5627 54.728 94.2C54.728 94.0187 54.7547 93.8 54.808 93.544C54.8613 93.2773 54.968 92.84 55.128 92.232C55.3093 91.5707 55.4267 91.0907 55.48 90.792C55.544 90.4827 55.576 90.216 55.576 89.992C55.576 89.6293 55.496 89.3573 55.336 89.176C55.176 88.9947 54.936 88.904 54.616 88.904C54.5733 88.904 54.5253 88.9093 54.472 88.92C54.4293 88.92 54.3013 88.936 54.088 88.968L52.808 95ZM60.7374 84.12C61.2814 83.768 61.8627 83.496 62.4814 83.304C63.1107 83.1013 63.724 83 64.3214 83C64.396 83 64.476 83.0053 64.5614 83.016C64.6574 83.016 64.7907 83.0213 64.9614 83.032L62.4174 95H60.1134L62.4334 84.136C61.708 84.4347 61.1534 84.8827 60.7694 85.48C60.3854 86.0773 60.1934 86.792 60.1934 87.624C60.1934 87.8267 60.204 88.0027 60.2254 88.152C60.2574 88.3013 60.3054 88.4453 60.3694 88.584C60.3907 88.6267 60.4014 88.6587 60.4014 88.68C60.412 88.6907 60.4174 88.7013 60.4174 88.712C59.82 88.712 59.3827 88.5893 59.1054 88.344C58.8387 88.088 58.7054 87.6933 58.7054 87.16C58.7054 86.6267 58.8814 86.0933 59.2334 85.56C59.596 85.0267 60.0974 84.5467 60.7374 84.12ZM67.5054 92.136C67.5054 92.648 67.6334 93.048 67.8894 93.336C68.156 93.6133 68.5347 93.752 69.0254 93.752C69.5907 93.752 70.1614 93.5973 70.7374 93.288C71.3134 92.9787 71.7294 92.5893 71.9854 92.12L72.3534 92.28C71.9587 93.1867 71.324 93.9173 70.4494 94.472C69.5854 95.016 68.6574 95.288 67.6654 95.288C66.748 95.288 66.028 95.032 65.5054 94.52C64.9827 94.008 64.7214 93.3253 64.7214 92.472C64.7214 91.544 65.004 90.6747 65.5694 89.864C66.1347 89.0427 66.8387 88.5307 67.6814 88.328C67.3614 88.104 67.116 87.8267 66.9454 87.496C66.7854 87.1653 66.7054 86.8027 66.7054 86.408C66.7054 85.512 67.0467 84.7173 67.7294 84.024C68.4227 83.32 69.2494 82.968 70.2094 82.968C70.892 82.968 71.4414 83.1493 71.8574 83.512C72.284 83.8747 72.4974 84.36 72.4974 84.968C72.4974 85.4373 72.38 85.832 72.1454 86.152C71.9214 86.472 71.644 86.632 71.3134 86.632C71.164 86.632 71.0254 86.5947 70.8974 86.52C70.78 86.4453 70.668 86.3387 70.5614 86.2C70.7534 86.136 70.9187 85.9653 71.0574 85.688C71.196 85.4 71.2654 85.1067 71.2654 84.808C71.2654 84.5307 71.1854 84.312 71.0254 84.152C70.8654 83.992 70.652 83.912 70.3854 83.912C69.9374 83.912 69.5534 84.1413 69.2334 84.6C68.9134 85.048 68.7534 85.5707 68.7534 86.168C68.7534 86.7013 68.892 87.16 69.1694 87.544C69.4574 87.9173 69.8574 88.1733 70.3694 88.312C69.58 88.4933 68.9027 88.9733 68.3374 89.752C67.7827 90.52 67.5054 91.3147 67.5054 92.136ZM74.0811 84.28C74.6251 83.928 75.2065 83.656 75.8251 83.464C76.4545 83.2613 77.0678 83.16 77.6651 83.16C77.7398 83.16 77.8198 83.1653 77.9051 83.176C78.0011 83.176 78.1345 83.1813 78.3051 83.192L75.8411 94.68C76.0865 94.7333 76.3478 94.824 76.6251 94.952C76.9131 95.0693 77.3451 95.2827 77.9211 95.592C78.7851 96.0613 79.4465 96.3707 79.9051 96.52C80.3638 96.6693 80.8011 96.744 81.2171 96.744C81.4625 96.744 81.6918 96.7227 81.9051 96.68C82.1291 96.6373 82.3478 96.5733 82.5611 96.488C82.4758 97.256 82.2838 97.864 81.9851 98.312C81.6865 98.7707 81.3238 99 80.8971 99C80.5131 99 80.1025 98.8933 79.6651 98.68C79.2385 98.4773 78.5878 98.0293 77.7131 97.336C76.7105 96.5253 75.9318 95.992 75.3771 95.736C74.8225 95.4907 74.2838 95.368 73.7611 95.368C73.6651 95.368 73.5905 95.368 73.5371 95.368C73.4838 95.368 73.4358 95.3733 73.3931 95.384L75.7771 84.296C75.0518 84.5947 74.4971 85.0427 74.1131 85.64C73.7291 86.2373 73.5371 86.952 73.5371 87.784C73.5371 87.9867 73.5478 88.1627 73.5691 88.312C73.6011 88.4613 73.6491 88.6053 73.7131 88.744C73.7345 88.7867 73.7451 88.8187 73.7451 88.84C73.7558 88.8507 73.7611 88.8613 73.7611 88.872C73.1638 88.872 72.7265 88.7493 72.4491 88.504C72.1825 88.248 72.0491 87.8533 72.0491 87.32C72.0491 86.7867 72.2251 86.2533 72.5771 85.72C72.9398 85.1867 73.4411 84.7067 74.0811 84.28Z" fill="white"/>
</mask>
<g mask="url(#mask0_1802_37)">
<path d="M0 0V120H124.825V0H0Z" fill="#FEFEFE"/>
</g>
</svg>
