<svg width="533" height="512" viewBox="0 0 533 512" fill="none" xmlns="http://www.w3.org/2000/svg">
<mask id="mask0_1802_42" style="mask-type:luminance" maskUnits="userSpaceOnUse" x="0" y="0" width="533" height="512">
<path fill-rule="evenodd" clip-rule="evenodd" d="M341.899 313.978L337.709 262.659H266.977C255.875 279.983 244.671 297.125 233.152 313.978H341.899ZM404.001 512C403.997 512 403.997 512 403.997 512C366.399 511.995 363.461 475.79 360.608 440.767L335.991 139.416C318.079 166.211 301.056 193.219 284.498 219.487C233.148 300.943 184.487 378.145 113.691 445.597C148.058 445.864 169.008 446.681 211.554 429.697C214.671 428.448 218.252 429.573 220.101 432.389C221.946 435.204 221.563 438.93 219.179 441.305C157.878 502.369 97.9107 502.809 23.6825 502.445C18.2319 502.419 12.7007 502.39 7.09148 502.39C4.10647 502.39 1.45011 500.527 0.42761 497.728C-0.59237 494.926 0.251947 491.784 2.53809 489.876C98.7852 409.193 202.11 247.823 285.129 118.161C298.633 97.0669 311.517 76.9437 323.573 58.4348C322.066 58.4222 320.572 58.4121 319.086 58.3964C313.752 58.353 308.561 58.3076 303.459 58.3076C276.307 58.3076 249.145 59.3005 215.517 71.3067C212.345 72.4419 208.823 71.1877 207.077 68.3091C205.332 65.4336 205.844 61.7277 208.312 59.439C267.725 4.26818 314.89 0 375.036 0C381.077 0 387.279 0.0484805 393.671 0.0900353C400.438 0.141664 407.414 0.188885 414.641 0.188885C418.34 0.188885 421.414 3.03161 421.705 6.71802L455.253 433.036C455.87 440.864 458.707 449.843 475.361 449.843C490.065 449.843 509.872 442.524 522.04 435.717C525.14 433.994 529.042 434.815 531.171 437.652C533.302 440.496 533 444.471 530.47 446.956C528.69 448.705 486.343 489.922 432.832 506.737C421.596 510.282 412.164 512 404.001 512Z" fill="white"/>
<path d="M224.299 398.8H215.083L223.787 358.096L233.259 356.816L230.123 371.6H230.635C233.067 371.6 235.179 370.426 236.971 368.08C238.806 365.733 239.723 363.194 239.723 360.464C239.723 358.373 239.104 356.73 237.867 355.536C236.63 354.341 234.902 353.744 232.683 353.744C227.392 353.744 223.19 355.152 220.075 357.968C216.96 360.741 215.403 364.517 215.403 369.296C215.403 370.106 215.446 370.81 215.531 371.408C215.659 372.005 215.851 372.581 216.107 373.136C216.192 373.306 216.235 373.434 216.235 373.52C216.278 373.562 216.299 373.605 216.299 373.648C213.91 373.648 212.16 373.157 211.051 372.176C209.984 371.152 209.451 369.573 209.451 367.44C209.451 365.306 210.155 363.173 211.563 361.04C213.014 358.906 215.019 356.986 217.579 355.28C219.755 353.872 222.08 352.784 224.555 352.016C227.072 351.205 229.526 350.8 231.915 350.8C236.395 350.8 239.936 351.738 242.539 353.616C245.142 355.493 246.443 357.968 246.443 361.04C246.443 363.088 245.803 365.114 244.523 367.12C243.286 369.125 241.622 370.746 239.531 371.984C241.024 372.41 242.134 373.157 242.859 374.224C243.584 375.248 243.947 376.634 243.947 378.384C243.947 379.365 243.84 380.496 243.627 381.776C243.414 383.013 242.944 384.912 242.219 387.472C241.622 389.648 241.238 391.205 241.067 392.144C240.896 393.082 240.811 393.893 240.811 394.576C240.811 395.557 241.024 396.432 241.451 397.2C241.92 397.968 242.539 398.501 243.307 398.8C242.07 399.141 240.896 399.397 239.787 399.568C238.72 399.781 237.782 399.888 236.971 399.888C235.307 399.888 234.048 399.525 233.195 398.8C232.384 398.117 231.979 397.05 231.979 395.6C231.979 394.874 232.086 394 232.299 392.976C232.512 391.909 232.939 390.16 233.579 387.728C234.304 385.082 234.774 383.162 234.987 381.968C235.243 380.73 235.371 379.664 235.371 378.768C235.371 377.317 235.051 376.229 234.411 375.504C233.771 374.778 232.811 374.416 231.531 374.416C231.36 374.416 231.168 374.437 230.955 374.48C230.784 374.48 230.272 374.544 229.419 374.672L224.299 398.8ZM256.016 355.28C258.192 353.872 260.518 352.784 262.992 352.016C265.51 351.205 267.963 350.8 270.352 350.8C270.651 350.8 270.971 350.821 271.312 350.864C271.696 350.864 272.23 350.885 272.912 350.928L262.736 398.8H253.52L262.8 355.344C259.899 356.538 257.68 358.33 256.144 360.72C254.608 363.109 253.84 365.968 253.84 369.296C253.84 370.106 253.883 370.81 253.968 371.408C254.096 372.005 254.288 372.581 254.544 373.136C254.63 373.306 254.672 373.434 254.672 373.52C254.715 373.562 254.736 373.605 254.736 373.648C252.347 373.648 250.598 373.157 249.488 372.176C248.422 371.152 247.888 369.573 247.888 367.44C247.888 365.306 248.592 363.173 250 361.04C251.451 358.906 253.456 356.986 256.016 355.28ZM283.088 387.344C283.088 389.392 283.6 390.992 284.624 392.144C285.691 393.253 287.206 393.808 289.168 393.808C291.43 393.808 293.712 393.189 296.016 391.952C298.32 390.714 299.984 389.157 301.008 387.28L302.48 387.92C300.902 391.546 298.363 394.469 294.864 396.688C291.408 398.864 287.696 399.952 283.728 399.952C280.059 399.952 277.179 398.928 275.088 396.88C272.998 394.832 271.952 392.101 271.952 388.688C271.952 384.976 273.083 381.498 275.344 378.256C277.606 374.97 280.422 372.922 283.792 372.112C282.512 371.216 281.531 370.106 280.848 368.784C280.208 367.461 279.888 366.01 279.888 364.432C279.888 360.848 281.254 357.669 283.984 354.896C286.758 352.08 290.064 350.672 293.904 350.672C296.635 350.672 298.832 351.397 300.496 352.848C302.203 354.298 303.056 356.24 303.056 358.672C303.056 360.549 302.587 362.128 301.648 363.408C300.752 364.688 299.643 365.328 298.32 365.328C297.723 365.328 297.168 365.178 296.656 364.88C296.187 364.581 295.739 364.154 295.312 363.6C296.08 363.344 296.742 362.661 297.296 361.552C297.851 360.4 298.128 359.226 298.128 358.032C298.128 356.922 297.808 356.048 297.168 355.408C296.528 354.768 295.675 354.448 294.608 354.448C292.816 354.448 291.28 355.365 290 357.2C288.72 358.992 288.08 361.082 288.08 363.472C288.08 365.605 288.635 367.44 289.744 368.976C290.896 370.469 292.496 371.493 294.544 372.048C291.387 372.773 288.678 374.693 286.416 377.808C284.198 380.88 283.088 384.058 283.088 387.344ZM309.391 355.92C311.567 354.512 313.893 353.424 316.367 352.656C318.885 351.845 321.338 351.44 323.727 351.44C324.026 351.44 324.346 351.461 324.687 351.504C325.071 351.504 325.605 351.525 326.287 351.568L316.431 397.52C317.413 397.733 318.458 398.096 319.567 398.608C320.719 399.077 322.447 399.93 324.751 401.168C328.207 403.045 330.853 404.282 332.687 404.88C334.522 405.477 336.271 405.776 337.935 405.776C338.917 405.776 339.834 405.69 340.687 405.52C341.583 405.349 342.458 405.093 343.311 404.752C342.97 407.824 342.202 410.256 341.007 412.048C339.813 413.882 338.362 414.8 336.655 414.8C335.119 414.8 333.477 414.373 331.727 413.52C330.021 412.709 327.418 410.917 323.919 408.144C319.909 404.901 316.794 402.768 314.575 401.744C312.357 400.762 310.202 400.272 308.111 400.272C307.727 400.272 307.429 400.272 307.215 400.272C307.002 400.272 306.81 400.293 306.639 400.336L316.175 355.984C313.274 357.178 311.055 358.97 309.519 361.36C307.983 363.749 307.215 366.608 307.215 369.936C307.215 370.746 307.258 371.45 307.343 372.048C307.471 372.645 307.663 373.221 307.919 373.776C308.005 373.946 308.047 374.074 308.047 374.16C308.09 374.202 308.111 374.245 308.111 374.288C305.722 374.288 303.973 373.797 302.863 372.816C301.797 371.792 301.263 370.213 301.263 368.08C301.263 365.946 301.967 363.813 303.375 361.68C304.826 359.546 306.831 357.626 309.391 355.92Z" fill="white"/>
</mask>
<g mask="url(#mask0_1802_42)">
<path d="M0 0V512H532.588V0H0Z" fill="#FEFEFE"/>
</g>
</svg>
