<svg xmlns="http://www.w3.org/2000/svg" width="512" height="512" viewBox="0 0 512 512">
  <rect width="512" height="512" rx="96" fill="#0C3B3B"/>
  <g transform="translate(76 83) scale(0.675)">
    <mask id="a" maskUnits="userSpaceOnUse" x="0" y="0" width="533" height="512" style="mask-type:luminance">
      <path fill-rule="evenodd" clip-rule="evenodd" d="M341.899 313.978L337.709 262.659H266.977C255.875 279.983 244.671 297.125 233.152 313.978H341.899ZM404.001 512C403.997 512 403.997 512 403.997 512C366.399 511.995 363.461 475.79 360.608 440.767L335.991 139.416C318.079 166.211 301.056 193.219 284.498 219.487C233.148 300.943 184.487 378.145 113.691 445.597C148.058 445.864 169.008 446.681 211.554 429.697C214.671 428.448 218.252 429.573 220.101 432.389C221.946 435.204 221.563 438.93 219.179 441.305C157.878 502.369 97.9107 502.809 23.6825 502.445C18.2319 502.419 12.7007 502.39 7.09148 502.39C4.10647 502.39 1.45011 500.527 0.42761 497.728C-0.59237 494.926 0.251947 491.784 2.53809 489.876C98.7852 409.193 202.11 247.823 285.129 118.161C298.633 97.0669 311.517 76.9437 323.573 58.4348C322.066 58.4222 320.572 58.4121 319.086 58.3964C313.752 58.353 308.561 58.3076 303.459 58.3076C276.307 58.3076 249.145 59.3005 215.517 71.3067C212.345 72.4419 208.823 71.1877 207.077 68.3091C205.332 65.4336 205.844 61.7277 208.312 59.439C267.725 4.26818 314.89 0 375.036 0C381.077 0 387.279 0.0484805 393.671 0.0900353C400.438 0.141664 407.414 0.188885 414.641 0.188885C418.34 0.188885 421.414 3.03161 421.705 6.71802L455.253 433.036C455.87 440.864 458.707 449.843 475.361 449.843C490.065 449.843 509.872 442.524 522.04 435.717C525.14 433.994 529.042 434.815 531.171 437.652C533.302 440.496 533 444.471 530.47 446.956C528.69 448.705 486.343 489.922 432.832 506.737C421.596 510.282 412.164 512 404.001 512Z" fill="white"/>
    </mask>
    <g mask="url(#a)">
      <rect width="533" height="512" fill="#FEFEFE"/>
    </g>
  </g>
</svg>
